<?xml version="1.0" encoding="UTF-8"?>
<svg id="Logo" xmlns="http://www.w3.org/2000/svg" viewBox="0 0 756 216">
  <defs>
    <style>
      .cls-1 {
        fill: #fff;
      }

      .cls-2 {
        fill: #942f4b;
      }
    </style>
  </defs>
  <path class="cls-2" d="M107.43,181.25h0c-18.59-23.66-43.39-41.67-71.63-52.04h0s0,0,0,0c16.75-24.99,26.23-54.14,27.36-84.21h0s0,0,0,0c28.94,8.21,59.6,8.21,88.54,0h0s0,0,0,0c1.13,30.06,10.61,59.22,27.36,84.21h0s0,0,0,0c-28.24,10.37-53.04,28.39-71.63,52.04h0Z"/>
  <path class="cls-1" d="M147.64,109.53c-.27-1.23-.69-2.37-1.25-3.41-.56-1.04-1.29-2-2.19-2.88-.9-.88-1.76-1.48-2.6-1.81-.83-.33-1.77-.5-2.82-.5-.92,0-1.85.16-2.79.47-.94.31-1.87.86-2.79,1.63-.92.77-1.73,1.81-2.44,3.1-.83,1.5-1.36,2.98-1.56,4.45l-2.88,19.95c-1.58-.33-2.73-.77-3.44-1.31-1-.79-1.8-1.92-2.41-3.38-.6-1.46-.91-3.27-.91-5.44,0-1.33.13-2.82.41-4.47.27-1.65.66-3.22,1.16-4.72,1.21-3.38,3.11-5.9,5.69-7.57.71-.37,1.44-.75,2.19-1.13l.19-1.13c-1,0-2.05.14-3.16.41-1.11.27-2.18.7-3.22,1.28-.22.13-.44.26-.65.39-.95.17-2.67,1.41-5.18,3.77l-.21.19c-3.91,3.58-7.01,6.14-9.35,7.66-2.32,1.54-4.39,2.36-6.22,2.46-1.68.09-3.17-.32-4.46-1.25-1.29-.93-2.25-2.26-2.86-4-.26-.75-.43-1.52-.51-2.32-.07-.8-.05-1.68.07-2.62,3.21-1.96,6.25-4.31,9.13-7.03,2.92-2.7,5.76-5.82,8.54-9.37-.15,1.03-.2,1.91-.15,2.65.05.74.17,1.44.38,2.1.5,1.59,1.4,2.83,2.72,3.72,1.31.89,2.85,1.3,4.63,1.25,3.71-.11,7.35-2.29,10.98-6.51,3.73-4.16,5.76-8.8,6.06-13.96,1.39.64,2.44,1.33,3.13,2.07.69.74,1.19,1.72,1.49,2.92.47,1.86.27,3.72-.59,5.6-.84,1.89-2.32,3.74-4.41,5.55-.34.33-.81.73-1.42,1.21-.89.67-1.29,1.16-1.2,1.48.02.09.11.18.26.28.15.1.28.15.4.14.27,0,.87-.31,1.79-.9.92-.59,1.84-1.32,2.74-2.18,1.8-1.69,3.06-3.49,3.78-5.41.73-1.92.85-3.87.35-5.87-.4-1.6-1.13-2.93-2.2-4-1.08-1.07-2.49-1.87-4.24-2.4-.06-.23-.11-.5-.16-.82-.05-.32-.09-.52-.11-.6-.61-2.38-1.89-4.2-3.83-5.45-1.95-1.25-4.52-1.91-7.69-1.97-4.69-.08-9.78,1.38-15.18,4.45-5.32,3.12-10,7.44-14.02,12.98-2.3,3.38-3.9,6.73-4.82,10.04-.89,3.33-1.1,6.57-.64,9.71-.97.32-1.86.56-2.66.72-.8.16-1.59.25-2.36.28-2.82.11-5.46-.72-7.92-2.5-2.47-1.79-4.28-4.17-5.42-7.13-1.7-4.43-1.1-8.86,1.87-13.23,3.06-4.32,7.82-7.34,14.25-9.09-.07-.03-.16-.05-.25-.05-1.75-.26-2.99-.4-3.72-.4-2.68-.02-5.27.57-7.74,1.8-2.46,1.24-4.48,2.96-6.04,5.18-1.43,2.1-2.27,4.42-2.51,6.95-.23,2.54.15,5.08,1.13,7.6,1.47,3.78,3.8,6.83,7,9.15,3.17,2.3,6.52,3.37,10.08,3.23.77-.03,1.53-.11,2.28-.24.75-.12,1.54-.3,2.36-.52.08.22.14.48.2.8.03.1.06.16.07.19l.34.94c.95,2.65,2.47,4.75,4.54,6.27,2.06,1.52,4.32,2.21,6.78,2.07,2-.11,4.14-.83,6.43-2.14,2.2-1.23,4.45-2.95,6.76-5.14-.68,1.5-1.14,3.07-1.36,4.72-2.37,6.51-4.86,11.51-7.54,14.95-3.24,4.34-7.28,6.75-12.18,7.19-4.1.37-7.94-.54-11.56-2.75-3.65-2.22-6.21-5.2-7.68-8.91-1.23-3.09-1.24-5.82-.01-8.18,1.24-2.34,3.32-3.57,6.22-3.71,1.93-.09,3.66.32,5.18,1.24,1.51.92,2.57,2.21,3.18,3.87.8,2.17.53,4.3-.78,6.41-1.29,2.12-3.35,3.66-6.17,4.63.65.18,1.28.31,1.89.38.61.07,1.18.08,1.71.04,2.62-.2,4.55-1.38,5.81-3.52,1.27-2.13,1.44-4.51.49-7.14-.81-2.22-2.34-4.03-4.61-5.44-2.28-1.41-4.7-2.06-7.26-1.94-3.47.16-5.91,1.51-7.3,4.07-1.37,2.58-1.33,5.68.12,9.3,1.75,4.4,4.73,7.84,8.89,10.32,4.12,2.45,8.66,3.44,13.65,2.98,3.91-.36,7.42-1.57,10.53-3.61,3.14-2.02,5.57-4.61,7.29-7.78.44-.81.87-1.81,1.31-2.98.92,2,2.33,3.58,4.23,4.74,1.42.88,3.82,1.65,7.19,2.31l-2.37,13.19h3.93s2.38-13.25,2.38-13.25c2.17,0,4.59-.71,7.26-2.13,2.04-1.08,3.73-2.28,5.07-3.6,1.34-1.31,2.51-2.92,3.54-4.82,1.02-1.9,1.7-3.83,2.03-5.79.12-.75.21-1.31.25-1.69.04-.38.06-.92.06-1.63,0-1.25-.14-2.49-.41-3.72ZM128.54,92.81c-3.43,4.12-6.92,6.25-10.55,6.34-1.09.03-2.11-.32-3.07-1.05-.96-.73-1.61-1.63-1.94-2.71-.55-1.77-.49-3.58.18-5.44.68-1.85,1.95-3.64,3.81-5.37,2.04-1.93,4.17-3.35,6.38-4.29,2.22-.93,4.53-1.38,6.91-1.37.6,0,1.2.05,1.79.14.59.09,1.21.22,1.86.4-.05,4.84-1.85,9.29-5.37,13.35ZM96.56,94.93c1.31-3.04,3.01-5.97,5.11-8.79,3.78-5.05,7.65-8.83,11.55-11.36,3.95-2.5,7.69-3.71,11.18-3.65,2.45.04,4.47.58,6.06,1.61,1.58,1.03,2.62,2.48,3.11,4.35l.29,1.12c-1.2-.21-2.08-.35-2.64-.43-.56-.08-1.06-.12-1.51-.12-5.79-.04-12.31,3.74-19.33,11.49-1.41,1.64-2.48,2.88-3.2,3.71-2.35,2.75-4.66,5.14-6.93,7.17-2.25,2.04-4.41,3.68-6.5,4.91.59-3.61,1.53-6.95,2.81-10.01ZM142.05,118.75c-.25,1.38-.48,2.25-.69,2.63-.67,1.63-1.32,2.9-1.95,3.82-.29.42-.86,1.04-1.7,1.88-1.42,1.46-3.02,2.48-4.77,3.07-.04,0-.96.19-2.76.56l2.33-17.13c.12-1.13.41-2.38.85-3.76.44-1.38.91-2.38,1.41-3.01.33-.38.71-.67,1.13-.88.42-.21.9-.31,1.44-.31.38,0,.84.13,1.38.38.54.25,1.14.82,1.79,1.72.65.9,1.1,1.78,1.35,2.66.25.88.41,1.55.47,2.03.06.48.09,1.26.09,2.35,0,1.29-.13,2.63-.38,4.01Z"/>
  <g>
    <path class="cls-2" d="M259.14,103.9h10.56v38.94h-9.68v-5.17c-5.65,4.03-12.8,6.05-21.45,6.05-6.97,0-13.44-1.54-19.42-4.62-5.98-3.08-10.74-7.57-14.3-13.47-3.56-5.9-5.33-12.89-5.33-20.96,0-7.63,1.78-14.45,5.33-20.46,3.56-6.01,8.47-10.73,14.74-14.13,6.27-3.41,13.33-5.12,21.17-5.12,6.16,0,11.75,1.01,16.77,3.02,5.02,2.02,9.29,4.97,12.82,8.86l-6.82,6.82c-6.16-5.94-13.6-8.91-22.33-8.91-5.87,0-11.13,1.28-15.79,3.85-4.66,2.57-8.3,6.12-10.94,10.67-2.64,4.55-3.96,9.68-3.96,15.4,0,6.09,1.34,11.37,4.01,15.84,2.68,4.47,6.21,7.87,10.62,10.17,4.4,2.31,9.17,3.46,14.3,3.46,3.59,0,7.09-.6,10.5-1.81s6.47-2.99,9.19-5.33v-23.1Z"/>
    <path class="cls-2" d="M332.29,127.22l5.72,6.82c-2.57,3.08-5.81,5.43-9.73,7.04-3.92,1.61-8.31,2.42-13.15,2.42-6.16,0-11.62-1.27-16.39-3.79-4.77-2.53-8.45-6.07-11.05-10.62-2.6-4.55-3.91-9.68-3.91-15.4s1.26-10.74,3.79-15.29c2.53-4.55,6.01-8.08,10.45-10.61,4.44-2.53,9.44-3.79,15.01-3.79,5.28,0,10.08,1.19,14.41,3.57,4.33,2.38,7.77,5.74,10.34,10.07,2.57,4.33,3.89,9.31,3.96,14.96l-46.31,9.02c1.47,4.03,3.94,7.15,7.42,9.35,3.48,2.2,7.68,3.3,12.59,3.3,6.97,0,12.58-2.35,16.83-7.04ZM303.2,95.43c-2.9,1.69-5.15,4.05-6.77,7.09-1.61,3.04-2.42,6.58-2.42,10.62v1.1l37.29-7.04c-.95-4.25-3.08-7.7-6.38-10.34-3.3-2.64-7.26-3.96-11.88-3.96-3.67,0-6.95.84-9.84,2.53Z"/>
    <path class="cls-2" d="M402.58,87.73c4.47,2.49,7.98,5.98,10.51,10.45,2.53,4.47,3.79,9.64,3.79,15.51s-1.27,11.06-3.79,15.57c-2.53,4.51-6.03,8.01-10.51,10.5-4.47,2.49-9.53,3.74-15.18,3.74-4.18,0-8.01-.81-11.5-2.42-3.48-1.61-6.43-3.96-8.85-7.04v30.14h-10.56v-79.64h10.12v9.24c2.35-3.23,5.32-5.67,8.91-7.32,3.59-1.65,7.55-2.47,11.88-2.47,5.65,0,10.71,1.25,15.18,3.74ZM396.58,131.68c2.97-1.72,5.32-4.14,7.04-7.26,1.72-3.12,2.59-6.69,2.59-10.73s-.86-7.61-2.59-10.72c-1.72-3.12-4.07-5.52-7.04-7.21-2.97-1.69-6.33-2.53-10.07-2.53s-6.99.86-9.96,2.58c-2.97,1.72-5.32,4.12-7.04,7.21-1.72,3.08-2.58,6.64-2.58,10.67s.84,7.61,2.53,10.73c1.69,3.12,4.03,5.54,7.04,7.26,3.01,1.72,6.34,2.58,10.01,2.58s7.09-.86,10.07-2.58Z"/>
    <path class="cls-2" d="M480.29,90.43c4.36,4.29,6.54,10.58,6.54,18.87v33.55h-10.56v-32.34c0-5.65-1.36-9.9-4.07-12.76-2.71-2.86-6.6-4.29-11.66-4.29-5.72,0-10.23,1.67-13.53,5-3.3,3.34-4.95,8.12-4.95,14.35v30.03h-10.56V61.22h10.56v31.57c2.2-2.79,5.08-4.95,8.63-6.49,3.56-1.54,7.54-2.31,11.93-2.31,7.41,0,13.29,2.14,17.66,6.43Z"/>
    <path class="cls-2" d="M506.58,71.34c-1.36-1.32-2.04-2.93-2.04-4.84s.68-3.54,2.04-4.9c1.36-1.36,3.06-2.03,5.12-2.03s3.76.64,5.12,1.92c1.36,1.28,2.04,2.88,2.04,4.79s-.68,3.65-2.04,5c-1.36,1.36-3.06,2.04-5.12,2.04s-3.76-.66-5.12-1.98ZM506.42,84.54h10.56v58.3h-10.56v-58.3Z"/>
    <path class="cls-2" d="M540.08,141.58c-4.4-1.28-7.85-2.92-10.34-4.9l4.4-8.36c2.57,1.83,5.68,3.3,9.35,4.4,3.67,1.1,7.37,1.65,11.11,1.65,9.24,0,13.86-2.64,13.86-7.92,0-1.76-.62-3.15-1.87-4.18-1.25-1.03-2.81-1.78-4.67-2.25-1.87-.48-4.53-1.01-7.98-1.59-4.69-.73-8.52-1.58-11.5-2.53-2.97-.95-5.52-2.57-7.64-4.84-2.13-2.27-3.19-5.46-3.19-9.57,0-5.28,2.2-9.51,6.6-12.71,4.4-3.19,10.3-4.78,17.71-4.78,3.89,0,7.77.48,11.66,1.43,3.89.95,7.08,2.24,9.57,3.85l-4.51,8.36c-4.77-3.08-10.38-4.62-16.83-4.62-4.47,0-7.88.73-10.23,2.2-2.35,1.47-3.52,3.41-3.52,5.83,0,1.91.66,3.41,1.98,4.51,1.32,1.1,2.95,1.91,4.89,2.42,1.94.51,4.67,1.1,8.2,1.76,4.69.81,8.49,1.67,11.38,2.58,2.9.92,5.37,2.48,7.42,4.68,2.05,2.2,3.08,5.28,3.08,9.24,0,5.28-2.25,9.48-6.76,12.6-4.51,3.12-10.65,4.67-18.42,4.67-4.77,0-9.35-.64-13.75-1.92Z"/>
    <path class="cls-2" d="M622.91,139.43c-1.54,1.32-3.45,2.33-5.72,3.03-2.27.7-4.62,1.04-7.04,1.04-5.87,0-10.41-1.58-13.64-4.73-3.23-3.15-4.84-7.66-4.84-13.53v-53.46h10.56v12.76h16.72v8.69h-16.72v31.57c0,3.15.79,5.57,2.37,7.26,1.58,1.69,3.83,2.53,6.77,2.53,3.23,0,5.98-.92,8.25-2.75l3.3,7.59Z"/>
    <path class="cls-2" d="M645.02,139.65c-4.62-2.57-8.23-6.1-10.83-10.61-2.6-4.51-3.91-9.62-3.91-15.35s1.3-10.83,3.91-15.34c2.6-4.51,6.21-8.03,10.83-10.56,4.62-2.53,9.83-3.79,15.62-3.79s10.98,1.26,15.56,3.79c4.58,2.53,8.18,6.05,10.78,10.56,2.6,4.51,3.91,9.62,3.91,15.34s-1.3,10.83-3.91,15.35c-2.6,4.51-6.2,8.05-10.78,10.61-4.58,2.57-9.77,3.85-15.56,3.85s-11-1.28-15.62-3.85ZM670.7,131.68c2.97-1.72,5.3-4.14,6.99-7.26,1.69-3.12,2.53-6.69,2.53-10.73s-.84-7.61-2.53-10.72c-1.69-3.12-4.02-5.52-6.99-7.21-2.97-1.69-6.33-2.53-10.06-2.53s-7.1.84-10.07,2.53c-2.97,1.69-5.32,4.09-7.04,7.21-1.72,3.12-2.58,6.69-2.58,10.72s.86,7.61,2.58,10.73c1.72,3.12,4.07,5.54,7.04,7.26,2.97,1.72,6.33,2.58,10.07,2.58s7.09-.86,10.06-2.58Z"/>
  </g>
</svg>